<svg xmlns="http://www.w3.org/2000/svg" viewBox="0 0 158.45 78.75"><g id="레이어_2" data-name="레이어 2"><g id="레이어_1-2" data-name="레이어 1"><path d="M147.64,30.29c8.31-6.83,12-12.87,10.47-17.35C156.23,7.51,146.88,5,131.72,5.85a.94.94,0,0,0-.92-.74,1,1,0,0,0-.94.85h-.06q-4.41.32-9.2,1V2.12H104.3V3a6,6,0,0,1,1.52,2.29,12.92,12.92,0,0,1,.46,3.9v.18c-2.89.6-5.84,1.29-8.84,2l1-3.43A28.48,28.48,0,0,1,99.83,4.5,3.08,3.08,0,0,1,101.38,3V2.12H95.45V3c1,.39,1.16,1.8.58,4.09l-1.36,5q-4.07,1-8.22,2.25L84.63,7.57c-.55-2.29-.32-3.8.65-4.53V2.12H77.84V3A5.13,5.13,0,0,1,79.5,4.6a30.83,30.83,0,0,1,1.21,3.26l2.08,7.62c-2,.62-4.08,1.27-6.14,1.94a23.19,23.19,0,0,0-2.2-10c-2.08-4-5.16-6-9-6l0-1.44a2.72,2.72,0,0,0-.08.8c0,.21,0,.43,0,.64-3.88,0-6.93,2.06-9.05,6A23.54,23.54,0,0,0,54.09,18c0,.19,0,.36,0,.54l-5.87.12c-.38,0-.76,0-1.14.06,2.34.1,4.68.16,7,.21A25.79,25.79,0,0,0,55,25.38c-4.65,1.9-9.13,3.88-13.39,5.92V9.23a12.92,12.92,0,0,1,.46-3.9A5.55,5.55,0,0,1,43.61,3V2.12H35.89V3a5.87,5.87,0,0,1,1.52,2.29,12.92,12.92,0,0,1,.46,3.9V26.86a12.92,12.92,0,0,1-.46,3.9A5.32,5.32,0,0,1,35.89,33v1h.31a178.78,178.78,0,0,0-16.06,9.17,1.9,1.9,0,0,1-.35-.64,4.64,4.64,0,0,1-.1-1.11l0-1.83c0,.78-.06,1.57-.07,2.36a2,2,0,0,1-2,2L15.32,44v0h.45c.67,0,1.33,0,2,.05a1.83,1.83,0,0,1,.72.2l-.12.08c-13.57,9.12-20,17.26-18,22.93a7.3,7.3,0,0,0,2.77,3.49A1.42,1.42,0,0,0,4.37,72.8a1.4,1.4,0,0,0,1.2-.68c3.61,1.57,8.91,2.39,15.69,2.39,2.1,0,4.35-.09,6.73-.24,2.15,3,5.37,4.48,9.65,4.48a29.29,29.29,0,0,0,7-1V72.27h-.33q2.91-.49,5.91-1.1a12.51,12.51,0,0,1-.46,3.73,5.25,5.25,0,0,1-1.51,2.24v1H56v-1a4.92,4.92,0,0,1-1.51-2.24A12.8,12.8,0,0,1,54,71v-.63Q59.39,69.21,65,67.72V71a13,13,0,0,1-.43,3.89,5.34,5.34,0,0,1-1.51,2.24v1h7.72v-1a5,5,0,0,1-1.52-2.24A12.85,12.85,0,0,1,68.83,71V66.69c3.33-.93,6.7-1.92,10.1-3l-2.27,7.17A42.43,42.43,0,0,1,75,75.29a4.63,4.63,0,0,1-1.59,1.85v1h6v-1c-1.16,0-1.36-1.65-.54-4.58l1.94-6.82h7.83l2,7.31c.7,2.49.43,4-.81,4.09v1h7.48v-1a4.5,4.5,0,0,1-1.78-2,18,18,0,0,1-1.28-3.41L90.88,59.65c3.72-1.35,7.37-2.74,10.92-4.17V71a12.85,12.85,0,0,1-.46,3.89,5.35,5.35,0,0,1-1.52,2.24v1h7.72v-1A5,5,0,0,1,106,74.9a12.8,12.8,0,0,1-.47-3.89V53.93q3.72-1.57,7.28-3.19a18.63,18.63,0,0,1,.17,2.63V71a16.67,16.67,0,0,1-.31,3.45,6.2,6.2,0,0,1-1.4,2.68v1H117v-1a6.31,6.31,0,0,1-1.4-2.68,17.39,17.39,0,0,1-.31-3.45V52.59l14.12,18.17V71a16.67,16.67,0,0,1-.31,3.45,6.29,6.29,0,0,1-1.39,2.68v1h5.66v-1a6.31,6.31,0,0,1-1.4-2.68,17.39,17.39,0,0,1-.31-3.45V53.37a17.21,17.21,0,0,1,.31-3.46,6.45,6.45,0,0,1,1.4-2.72v-.93h-5.66v.93a6.42,6.42,0,0,1,1.39,2.72,16.5,16.5,0,0,1,.31,3.46V63.89L117.55,48.53a182.35,182.35,0,0,0,22.54-12.66c1.53-1,3-2,4.31-3a4.68,4.68,0,0,1,1.28,3.7c0,1.59.06,3.19.1,4.78a4.6,4.6,0,0,0,.05-.74c0-1.61,0-3.23.11-4.84a4.33,4.33,0,0,1,3.57-4.14,12.68,12.68,0,0,1,1.85-.11c1.39,0,2.79-.06,4.18-.09-1.76-.08-3.52-.12-5.29-.16A4.39,4.39,0,0,1,147.64,30.29ZM110,4h4.81a2.93,2.93,0,0,1,2,.73L119,7.16q-4.34.62-8.93,1.5ZM94.58,12.45l-4.37,16L86.52,14.66C89.25,13.87,91.93,13.13,94.58,12.45ZM65.13,27.54c0,1.66.06,3.33.1,5C63,32.43,61.23,31,60,28.27a18.86,18.86,0,0,1-1.16-4.14c1.5-.6,3-1.18,4.54-1.76A8.7,8.7,0,0,1,65.13,27.54Zm.5-.2a8.4,8.4,0,0,1,5.27-7.69l.56-.2a8.86,8.86,0,0,1,.89-.21A25.76,25.76,0,0,1,71,28c-1.16,2.92-3,4.53-5.39,4.58h-.09C65.56,30.82,65.6,29.08,65.63,27.34ZM70.69,8.2A26.89,26.89,0,0,1,72.36,18v.31a8.3,8.3,0,0,1-6.63-7.13,46.13,46.13,0,0,1-.18-4.71c0-.86,0-1.71,0-2.57C67.74,4.05,69.44,5.44,70.69,8.2Zm-11,.3c1.21-3,3-4.53,5.43-4.58h.16c-.05,2.07-.1,4.13-.13,6.2a8.47,8.47,0,0,1-6.74,8.22A27.69,27.69,0,0,1,59.67,8.5ZM58.41,19.23a8.38,8.38,0,0,1,4.83,2.91Q61,23,58.82,23.85A34.65,34.65,0,0,1,58.41,19.23ZM40,75.78a3.54,3.54,0,0,1-2.21.73,6.62,6.62,0,0,1-5.42-2.61C36,73.54,39.8,73,43.75,72.36ZM54,70.1V61.26H65v6.17Q59.36,68.93,54,70.1ZM88,63.46H81.4l.17-.62Q84,62,86.49,61.2l.88-.31Zm-6.37-.94,3.23-11.34,2.41,9.44-.9.32Q84,61.75,81.66,62.52ZM117.38,48.3l-1.58-2h-4.5v.93a6.33,6.33,0,0,1,1.4,2.72c0,.17.07.36.1.54q-3.52,1.61-7.24,3.17v-.25a12.8,12.8,0,0,1,.47-3.89,5.42,5.42,0,0,1,1.51-2.29v-.93H99.82v.93a5.83,5.83,0,0,1,1.52,2.29,12.85,12.85,0,0,1,.46,3.89v1.81q-5.34,2.16-11,4.2L87,45.58H84.66L79,63.37q-5.18,1.63-10.2,3v-13a12.85,12.85,0,0,1,.46-3.89,5.43,5.43,0,0,1,1.52-2.29v-.93H63.09v.93a5.82,5.82,0,0,1,1.51,2.29A13,13,0,0,1,65,53.37V59H54v-5.6a12.8,12.8,0,0,1,.47-3.89A5.33,5.33,0,0,1,56,47.19v-.93H48.23v.93a5.72,5.72,0,0,1,1.51,2.29,12.8,12.8,0,0,1,.47,3.89V70.88c-6.45,1.3-12.51,2.22-18,2.77A10.68,10.68,0,0,1,30.74,71a26.11,26.11,0,0,1-1.32-8.72,22.72,22.72,0,0,1,2.21-10.62,6.85,6.85,0,0,1,6.2-3.75A3.4,3.4,0,0,1,40,48.6l3.84,3.51h.77V46.6a26.83,26.83,0,0,0-6.44-1,11.3,11.3,0,0,0-9.62,4.63c-2.28,3.21-3.41,7.5-3.41,12.71a21.73,21.73,0,0,0,2,9.89A11.82,11.82,0,0,0,27.82,74c-9.68.63-17.36-.06-22.12-2.13a1.63,1.63,0,0,0,.09-.49A1.42,1.42,0,0,0,4.37,70a1.39,1.39,0,0,0-1.11.54A7,7,0,0,1,.6,67.15c-2-5.77,5.11-14.06,18.15-22.77a2.1,2.1,0,0,1,.59.66,2.36,2.36,0,0,1,.26,1.22c0,.72,0,1.43,0,2.14a1.83,1.83,0,0,0,0-.33c0-.72,0-1.44.05-2.16a1.94,1.94,0,0,1,1.6-1.85,5.64,5.64,0,0,1,.82-.05L24,44c-.79,0-1.57-.06-2.36-.07a2,2,0,0,1-1.31-.56A182.48,182.48,0,0,1,36.83,34H51.14l.7-6.43h-.78L47.8,31a3,3,0,0,1-2.13,1.07h-4v-.46c4.25-2,8.76-4,13.47-6a17.79,17.79,0,0,0,1.15,3c2.11,4,5.15,6,9,6l.06,3h.06c0-.18,0-.36,0-.55l.06-2.42c3.83,0,6.9-2,9-6A22.9,22.9,0,0,0,76.64,19l1.15,0c2-.06,3.92-.09,5.88-.14a5.15,5.15,0,0,0-1.1-.12l-5.92-.12c0-.18,0-.35,0-.54V17.7c2.08-.68,4.15-1.32,6.2-1.95l5,18.22h2.8l6.7-22.22q4.57-1.12,8.94-2V26.86a12.92,12.92,0,0,1-.46,3.9A5.41,5.41,0,0,1,104.3,33v1h17.11l.7-6.43h-.78L118.07,31a3,3,0,0,1-2.13,1.07H110V16.73h2.87a6.34,6.34,0,0,1,3.11.68,6.76,6.76,0,0,1,2,2.24h.78V12h-.78a6.76,6.76,0,0,1-2,2.24,6.49,6.49,0,0,1-3.11.63H110V9c3.16-.61,6.22-1.12,9.15-1.55l.63.71h.78V7.2q4.88-.66,9.27-1a1,1,0,0,0,.93.8,1,1,0,0,0,1-.92c1.88-.1,3.69-.16,5.41-.16,11.43,0,19,2.31,20.68,7.08,1.54,4.5-2.44,10.52-10.42,17.08a4.46,4.46,0,0,1-1.32-2,9.43,9.43,0,0,1-.21-2.49c0-1.36-.06-2.73-.09-4.1-.07,1.77-.12,3.53-.15,5.29a4.41,4.41,0,0,1-4.5,4.45c-1.69,0-3.37.07-5,.11v.06h1c1.49,0,3,0,4.46.12a4.1,4.1,0,0,1,2.64,1.11A166.8,166.8,0,0,1,117.38,48.3Z" style="fill:#fff"/></g></g></svg>