<?xml version="1.0" encoding="utf-8"?>
<!-- Generator: Adobe Illustrator 26.0.3, SVG Export Plug-In . SVG Version: 6.00 Build 0)  -->
<svg version="1.1" id="레이어_1" xmlns="http://www.w3.org/2000/svg" xmlns:xlink="http://www.w3.org/1999/xlink" x="0px"
	 y="0px" viewBox="0 0 595.28 841.89" style="enable-background:new 0 0 595.28 841.89;" xml:space="preserve">
<style type="text/css">
	.st0{fill:#FFFFFF;}
</style>
<path class="st0" d="M366.74,411.65c8.31-6.84,12.01-12.87,10.47-17.35c-1.87-5.44-11.22-7.93-26.39-7.1
	c-0.1-0.42-0.47-0.74-0.92-0.74c-0.49,0-0.88,0.37-0.94,0.85c-0.02,0-0.04,0-0.06,0c-2.93,0.21-6.01,0.54-9.2,0.97v-4.81H323.4v0.93
	c0.58,0.49,1.13,1.32,1.51,2.29c0.31,0.93,0.47,2.24,0.47,3.9v0.18c-2.89,0.6-5.85,1.29-8.84,2.03l1.03-3.43
	c0.43-1.36,0.89-2.53,1.36-3.51c0.39-0.68,0.89-1.22,1.55-1.46v-0.93h-5.94v0.93c0.97,0.39,1.16,1.8,0.58,4.09l-1.36,5
	c-2.71,0.7-5.45,1.46-8.22,2.26l-1.82-6.82c-0.54-2.29-0.31-3.8,0.66-4.53v-0.93h-7.45v0.93c0.74,0.44,1.32,1.02,1.67,1.56
	c0.35,0.83,0.81,1.95,1.2,3.26l2.08,7.62c-2.04,0.62-4.08,1.26-6.14,1.94c-0.08-3.87-0.83-7.22-2.2-9.95
	c-2.08-3.97-5.16-6.01-9.01-6.04c-0.01-0.48-0.02-0.96-0.03-1.44c-0.08,0.27-0.07,0.53-0.08,0.8c0,0.21-0.01,0.43-0.01,0.64
	c-3.89,0.02-6.93,2.06-9.06,6.04c-1.44,2.87-2.17,6.43-2.17,10.57c0,0.18,0.01,0.36,0.01,0.54c-1.96,0.04-3.92,0.07-5.87,0.11
	c-0.38,0.01-0.76,0.05-1.14,0.07c2.34,0.09,4.68,0.15,7.02,0.21c0.06,2.34,0.37,4.48,0.92,6.4c-4.64,1.91-9.12,3.89-13.39,5.92
	v-22.07c0-1.66,0.16-2.97,0.47-3.9c0.39-0.97,0.89-1.8,1.51-2.29v-0.93H255v0.93c0.58,0.49,1.13,1.32,1.51,2.29
	c0.31,0.93,0.47,2.24,0.47,3.9v17.63c0,1.66-0.16,2.97-0.47,3.9c-0.39,0.97-0.93,1.8-1.51,2.24v0.97h0.3
	c-5.89,2.99-11.28,6.07-16.05,9.17c-0.15-0.19-0.28-0.4-0.35-0.64c-0.11-0.37-0.08-0.74-0.1-1.11c-0.02-0.61-0.03-1.22-0.04-1.83
	c-0.03,0.79-0.05,1.57-0.07,2.36c-0.02,1.14-0.86,1.97-2.01,1.98c-0.75,0.01-1.5,0.03-2.25,0.05c0,0.01,0,0.02,0,0.03
	c0.15,0,0.3,0,0.45,0c0.66,0.01,1.33,0.01,1.99,0.05c0.27,0.02,0.51,0.09,0.72,0.2c-0.04,0.03-0.09,0.06-0.13,0.08
	c-13.57,9.12-19.96,17.26-18.01,22.93c0.46,1.35,1.4,2.51,2.76,3.49c-0.1,0.19-0.16,0.41-0.16,0.64c0,0.79,0.64,1.42,1.42,1.42
	c0.51,0,0.95-0.27,1.21-0.68c3.61,1.57,8.91,2.38,15.69,2.38c2.1,0,4.35-0.08,6.72-0.24c2.15,3.01,5.37,4.48,9.65,4.48
	c2.13,0,4.46-0.39,6.98-1.02v-5.46h-0.33c1.94-0.33,3.91-0.7,5.92-1.1c-0.01,1.58-0.16,2.84-0.46,3.73
	c-0.39,0.97-0.93,1.8-1.51,2.24v0.97h7.72v-0.97c-0.62-0.44-1.13-1.27-1.51-2.24c-0.31-0.93-0.47-2.24-0.47-3.9v-0.62
	c3.61-0.78,7.3-1.67,11.06-2.66v3.28c0,1.66-0.12,2.97-0.43,3.9c-0.39,0.97-0.93,1.8-1.51,2.24v0.97h7.72v-0.97
	c-0.62-0.44-1.12-1.27-1.51-2.24c-0.31-0.93-0.47-2.24-0.47-3.9v-4.31c3.33-0.93,6.7-1.92,10.1-3l-2.27,7.17
	c-0.7,2.05-1.28,3.56-1.71,4.43c-0.43,0.83-1.01,1.51-1.59,1.85v0.97h6.01v-0.97c-1.16-0.05-1.36-1.66-0.54-4.58l1.94-6.82h7.84
	l1.98,7.31c0.7,2.48,0.43,3.95-0.81,4.09v0.97h7.49v-0.97c-0.85-0.54-1.44-1.22-1.78-2c-0.47-0.93-0.93-2.09-1.28-3.41l-3.32-12.09
	c3.72-1.34,7.37-2.73,10.92-4.17v15.53c0,1.66-0.16,2.97-0.47,3.9c-0.39,0.97-0.93,1.8-1.51,2.24v0.97h7.72v-0.97
	c-0.62-0.44-1.13-1.27-1.51-2.24c-0.31-0.93-0.47-2.24-0.47-3.9v-17.08c2.48-1.04,4.91-2.11,7.28-3.19
	c0.11,0.76,0.17,1.65,0.17,2.63v17.63c0,1.36-0.12,2.53-0.31,3.46c-0.19,0.93-0.7,1.85-1.4,2.68v0.97h5.66v-0.97
	c-0.7-0.83-1.2-1.75-1.4-2.68c-0.19-0.93-0.31-2.09-0.31-3.46v-18.41l14.12,18.17v0.24c0,1.36-0.12,2.53-0.31,3.46
	c-0.19,0.93-0.7,1.85-1.4,2.68v0.97h5.66v-0.97c-0.7-0.83-1.2-1.75-1.4-2.68s-0.31-2.09-0.31-3.46v-17.63
	c0-1.36,0.12-2.58,0.31-3.46c0.19-0.97,0.7-1.85,1.4-2.73v-0.93h-5.66v0.93c0.7,0.88,1.2,1.75,1.4,2.73
	c0.19,0.88,0.31,2.09,0.31,3.46v10.52l-11.83-15.36c8.5-4.08,16.14-8.36,22.54-12.66c1.53-1.03,2.96-2.05,4.31-3.05
	c0.26,0.28,0.5,0.6,0.71,0.95c0.5,0.85,0.55,1.79,0.57,2.74c0.02,1.59,0.07,3.19,0.1,4.78c0.05-0.25,0.04-0.49,0.05-0.74
	c0.03-1.61,0.06-3.23,0.11-4.84c0.07-2.05,1.55-3.78,3.58-4.14c0.6-0.11,1.23-0.1,1.85-0.11c1.39-0.04,2.79-0.06,4.18-0.09
	c-1.76-0.08-3.53-0.12-5.29-0.16C368.38,412.57,367.47,412.22,366.74,411.65z M329.15,385.38h4.81c0.81,0,1.47,0.29,1.98,0.73
	l2.14,2.41c-2.89,0.42-5.87,0.91-8.93,1.5V385.38z M313.68,393.81l-4.37,16.02l-3.69-13.81
	C308.35,395.23,311.04,394.49,313.68,393.81z M284.23,408.9c0.02,1.67,0.06,3.33,0.1,5c-2.25-0.11-3.99-1.54-5.21-4.26
	c-0.5-1.15-0.89-2.54-1.16-4.15c1.5-0.59,3.01-1.18,4.54-1.76C283.57,405.14,284.2,406.92,284.23,408.9z M284.73,408.7
	c0.06-3.45,2.18-6.48,5.27-7.69c0.19-0.07,0.37-0.13,0.56-0.2c0.29-0.09,0.59-0.16,0.89-0.22c-0.05,3.63-0.51,6.59-1.35,8.74
	c-1.16,2.92-2.99,4.53-5.39,4.58c-0.03,0-0.06-0.01-0.09-0.01C284.66,412.18,284.7,410.44,284.73,408.7z M289.79,389.57
	c1.01,2.34,1.59,5.65,1.67,9.84c0,0.1,0,0.2,0,0.3c-3.48-0.71-6.16-3.48-6.62-7.13c-0.2-1.55-0.14-3.14-0.18-4.71
	c-0.02-0.86-0.04-1.71-0.06-2.57C286.84,385.41,288.55,386.8,289.79,389.57z M278.78,389.86c1.2-2.97,3.03-4.53,5.43-4.58
	c0.05,0,0.1,0.01,0.16,0.01c-0.05,2.07-0.1,4.14-0.13,6.2c-0.07,4.09-2.89,7.42-6.73,8.22
	C277.43,395.56,277.89,392.18,278.78,389.86z M277.52,400.59c1.97,0.41,3.64,1.44,4.82,2.91c-1.49,0.56-2.96,1.13-4.42,1.71
	C277.7,403.83,277.56,402.29,277.52,400.59z M259.11,457.14c-0.62,0.49-1.4,0.73-2.21,0.73c-2.22,0-4.04-0.88-5.42-2.61
	c3.62-0.36,7.42-0.88,11.37-1.54L259.11,457.14z M273.07,451.46v-8.83h11.06v6.17C280.35,449.79,276.66,450.68,273.07,451.46z
	 M307.13,444.82h-6.63l0.18-0.62c1.63-0.53,3.27-1.08,4.92-1.64c0.3-0.1,0.59-0.21,0.88-0.31L307.13,444.82z M300.76,443.88
	l3.23-11.34l2.42,9.44c-0.3,0.11-0.6,0.21-0.91,0.32C303.91,442.85,302.34,443.37,300.76,443.88z M336.48,429.67l-1.57-2.04h-4.5
	v0.93c0.7,0.88,1.2,1.75,1.4,2.73c0.04,0.16,0.07,0.35,0.1,0.54c-2.35,1.07-4.76,2.13-7.23,3.17v-0.25c0-1.66,0.16-2.97,0.47-3.9
	c0.39-0.97,0.89-1.8,1.51-2.29v-0.93h-7.72v0.93c0.58,0.49,1.13,1.32,1.51,2.29c0.31,0.93,0.47,2.24,0.47,3.9v1.8
	c-3.56,1.44-7.23,2.85-10.99,4.2l-3.79-13.8h-2.37l-5.62,17.79c-3.45,1.09-6.85,2.1-10.2,3.03v-13.03c0-1.66,0.16-2.97,0.47-3.9
	c0.39-0.97,0.89-1.8,1.51-2.29v-0.93h-7.72v0.93c0.58,0.49,1.12,1.32,1.51,2.29c0.31,0.93,0.43,2.24,0.43,3.9v5.6h-11.06v-5.6
	c0-1.66,0.16-2.97,0.47-3.9c0.39-0.97,0.89-1.8,1.51-2.29v-0.93h-7.72v0.93c0.58,0.49,1.13,1.32,1.51,2.29
	c0.31,0.93,0.47,2.24,0.47,3.9v17.51c-6.45,1.29-12.51,2.22-18.03,2.77c-0.56-0.75-1.04-1.64-1.44-2.69
	c-0.81-2.29-1.32-5.21-1.32-8.72c0-4.34,0.78-7.89,2.21-10.62c1.44-2.48,3.53-3.75,6.21-3.75c0.78,0,1.51,0.24,2.13,0.73l3.84,3.51
	h0.78v-5.5c-2.44-0.63-4.62-1.02-6.44-1.02c-4.11,0-7.37,1.56-9.62,4.63c-2.29,3.21-3.41,7.5-3.41,12.71c0,3.99,0.66,7.31,1.98,9.89
	c0.22,0.43,0.47,0.82,0.73,1.2c-9.68,0.63-17.35-0.06-22.12-2.14c0.06-0.15,0.09-0.32,0.09-0.49c0-0.78-0.64-1.42-1.42-1.42
	c-0.45,0-0.85,0.22-1.11,0.55c-1.29-0.94-2.2-2.05-2.65-3.35c-1.99-5.77,5.11-14.06,18.14-22.77c0.23,0.17,0.43,0.38,0.59,0.66
	c0.22,0.38,0.25,0.8,0.25,1.22c0.01,0.71,0.03,1.42,0.05,2.13c0.02-0.11,0.02-0.22,0.02-0.33c0.02-0.72,0.03-1.44,0.05-2.16
	c0.03-0.91,0.69-1.69,1.6-1.85c0.27-0.05,0.55-0.04,0.82-0.05c0.62-0.02,1.25-0.03,1.87-0.04c-0.79-0.03-1.57-0.05-2.36-0.07
	c-0.5-0.01-0.95-0.23-1.3-0.56c4.81-3.11,10.35-6.27,16.49-9.37h14.31l0.7-6.43h-0.78l-3.26,3.46c-0.62,0.68-1.4,1.07-2.13,1.07
	h-4.03v-0.47c4.26-2.03,8.76-4.03,13.47-5.96c0.32,1.06,0.69,2.05,1.15,2.97c2.11,3.96,5.15,5.95,9.02,5.98
	c0.02,0.99,0.05,1.98,0.07,2.97c0.02,0,0.04,0,0.05,0c0.01-0.18,0.02-0.37,0.03-0.55c0.02-0.81,0.03-1.62,0.05-2.42
	c3.83-0.03,6.9-2.03,8.98-5.98c1.33-2.65,2.08-5.9,2.19-9.64c0.38,0,0.77-0.01,1.15-0.02c1.96-0.06,3.91-0.09,5.87-0.13
	c-0.36-0.09-0.73-0.12-1.1-0.13c-1.97-0.04-3.95-0.07-5.92-0.11c0-0.18,0.01-0.36,0.01-0.54c0-0.12-0.01-0.23-0.01-0.34
	c2.09-0.68,4.15-1.33,6.21-1.95l4.98,18.22h2.79l6.71-22.22c3.05-0.75,6.03-1.44,8.94-2.05v17.15c0,1.66-0.16,2.97-0.47,3.9
	c-0.39,0.97-0.93,1.8-1.51,2.24v0.97h17.11l0.7-6.43h-0.78l-3.26,3.46c-0.62,0.68-1.4,1.07-2.13,1.07h-5.9v-15.34h2.87
	c1.28,0,2.33,0.24,3.1,0.68c0.78,0.49,1.51,1.32,2.06,2.24h0.78v-7.7h-0.78c-0.54,0.93-1.28,1.75-2.06,2.24
	c-0.78,0.44-1.82,0.63-3.1,0.63h-2.87v-5.88c3.15-0.61,6.21-1.12,9.15-1.55l0.63,0.7h0.78v-0.9c3.25-0.44,6.35-0.76,9.27-0.97
	c0.08,0.45,0.46,0.8,0.93,0.8c0.52,0,0.93-0.41,0.95-0.92c1.88-0.1,3.7-0.17,5.41-0.17c11.43,0,19.04,2.31,20.68,7.08
	c1.54,4.49-2.43,10.52-10.42,17.08c-0.6-0.53-1.07-1.22-1.32-2.03c-0.25-0.82-0.19-1.66-0.21-2.49c-0.04-1.37-0.06-2.73-0.09-4.1
	c-0.07,1.76-0.12,3.53-0.15,5.29c-0.05,2.56-1.93,4.41-4.5,4.44c-1.68,0.02-3.37,0.07-5.05,0.11c0,0.02-0.01,0.04-0.01,0.06
	c0.34,0,0.68-0.01,1.01,0c1.48,0.03,2.97,0.03,4.45,0.12c1.07,0.06,1.94,0.45,2.64,1.12C356.41,419.13,347.24,424.5,336.48,429.67z"
	/>
</svg>
